<?xml version="1.0" encoding="utf-8"?>
<!-- Generator: Adobe Illustrator 19.0.0, SVG Export Plug-In . SVG Version: 6.00 Build 0)  -->
<svg version="1.1" id="Layer_1" xmlns="http://www.w3.org/2000/svg" xmlns:xlink="http://www.w3.org/1999/xlink" x="0px" y="0px"
	 viewBox="0 0 500 500" style="enable-background:new 0 0 500 500;" xml:space="preserve">
<style type="text/css">
	.st0{fill:#6DB33F;}
</style>
<g id="XMLID_1_">
	<path id="XMLID_7_" class="st0" d="M416.8,145.7L173.1,69.9c-11.8-3.7-24.4,2.9-28.1,14.6L68.5,326.3c-3.7,11.7,2.9,24.3,14.7,27.9
		l243.7,75.8c11.8,3.7,24.4-2.9,28.1-14.6l76.4-241.8C435.2,162,428.6,149.4,416.8,145.7z M183,326c0,10.3-8.5,18.8-18.9,18.8H164
		c-10.4,0-18.9-8.5-18.9-18.8v-96.3c0-10.3,8.5-18.8,18.9-18.8h0.1c10.4,0,18.9,8.5,18.9,18.8V326z M164.1,192.5
		c-10.5,0-19-8.5-19-18.9c0-10.4,8.5-18.9,19-18.9c10.5,0,19,8.5,19,18.9C183.1,184,174.6,192.5,164.1,192.5z M284.7,344.8
		c-47.4,0-85.8-38.9-85.8-86c0-47,38.4-85.2,85.8-85.2c24.4,0,46.4,10.1,62.1,26.3l9.2-16.1c9.4,25.2,15.5,54.6,15.5,74.7
		C371.5,305.7,332.1,344.8,284.7,344.8z"/>
	<path id="XMLID_8_" class="st0" d="M252.2,317.1c9.2-2.9,19-5.9,27.2-8.5c32.4-10.4,60.3-36.6,67.7-69.4
		c-5.9,15.5-29.8,45.7-67.3,57.7c-12,3.8-24.5,6.2-36.9,9c-1.6,0.4-3.8,0-5.1-0.9c-7.9-4.9-12.2-13.6-12.8-22.4
		c-1.8-23.7,14.4-43,38.5-48c10.1-2.1,20.5-1.6,30.9-2.7c27.3-2.9,53-22.2,60.7-38.5c0,0,1.4,3.2,1.7,4.1
		c5.9,18.2,10.5,36.7,11,55.9c0.2,10.4-0.9,20.6-4.6,30.4c-7.4,19.7-22.6,29.7-43,32.1c-11.9,1.4-24,1.1-36,1.3
		C274.5,317.5,263.2,317.1,252.2,317.1"/>
	<path id="XMLID_9_" class="st0" d="M240.2,318.1c0,4-3.3,7.3-7.3,7.3c-4,0-7.3-3.3-7.3-7.3c0-4,3.3-7.3,7.3-7.3
		C236.9,310.9,240.2,314.1,240.2,318.1"/>
</g>
</svg>
